# xmcd
#
# Track frame offsets:
# 150
# 18248
# 26450
# 40929
# 56266
# 68674
# 88805
# 100864
# 109434
# 121192
#
# Disc length: 1868 seconds
#
#
# Revision: 0
# Processed by: cddbd v1.5.2PL0 Copyright (c) Steve Scherf et al.
# Submitted via: FreeRIP 2.945 
#
DISCID=78074a0a
DTITLE=Dolly Parton - Home For Christmas
DYEAR=1900
DGENRE=Country
TTITLE0=First Noel
TTITLE1=Santa Claus Is Coming To Town
TTITLE2=I'll Be Home For Christmas
TTITLE3=Rudolph The Red-Nosed Raindeer
TTITLE4=Go Tell It On The Mountain
TTITLE5=The Little Drummer Boy
TTITLE6=We Three Kings
TTITLE7=Jingle Bells
TTITLE8=O Little Town Of Bethlehem
TTITLE9=Joy To The World
EXTD=
EXTT0=
EXTT1=
EXTT2=
EXTT3=
EXTT4=
EXTT5=
EXTT6=
EXTT7=
EXTT8=
EXTT9=
PLAYORDER=
